<svg id="Ebene_1" data-name="Ebene 1" xmlns="http://www.w3.org/2000/svg" viewBox="0 0 629.34 227.97"><defs><style>.cls-1,.cls-2,.cls-5{fill:#1a171b;}.cls-2{fill-rule:evenodd;}.cls-3,.cls-4{fill:none;stroke:#1a171b;stroke-miterlimit:3.86;}.cls-3{stroke-width:2.23px;}.cls-4{stroke-width:1.11px;}.cls-5{font-size:48px;font-family:GillSans, Gill Sans;}.cls-6{letter-spacing:-0.13em;}</style></defs><title>adwlogo</title><g id="Logo"><path class="cls-1" d="M102.44,368.1c0-.82-.06-1.07.85-1.07.12,0,.34,0,.34-.17s-.1-.18-.22-.18c-.49,0-1,.05-1.48.05s-1-.05-1.46-.05c-.13,0-.22,0-.22.18s.21.17.33.17c.91,0,.85.25.85,1.07v5.32c0,.82.06,1.07-.83,1.07-.13,0-.34,0-.34.17s.1.18.22.18c.44,0,.86-.05,1.3-.05,1.25,0,2.52.05,3.77.05.35,0,.33-.16.34-.49s.14-.91.14-1.35c0-.09,0-.18-.12-.18s-.13.1-.16.17a2.91,2.91,0,0,1-.68,1.08,2.41,2.41,0,0,1-1.43.43c-1.17,0-1.2-.47-1.2-1.46V368.1Z" transform="translate(-21.01 -184.28)"/><path class="cls-1" d="M110.38,367.71c0-.22,0-.51.21-.6a4.22,4.22,0,0,1,1-.08,5.25,5.25,0,0,1,1.43.13,1.21,1.21,0,0,1,.81.77l.2.36c0,.09.09.26.21.26s.12-.19.12-.27v-1.12c0-.17.06-.48-.18-.48-1.11,0-2.2.05-3.32.05-.81,0-1.64-.05-2.44-.05a.2.2,0,0,0-.22.2c0,.16.21.16.34.16.9,0,.85.26.85,1.07v5.29c0,.83.05,1.09-.85,1.09-.13,0-.34,0-.34.16s.1.2.22.2.55-.05.81-.05h5.08c.1,0,.13,0,.14-.08l.2-1.38a1.33,1.33,0,0,0,.05-.31c0-.09,0-.14-.13-.14s-.25.35-.29.44c-.44,1.14-1.16,1.17-2.28,1.17s-1.6,0-1.6-1.21V371c0-.44.13-.44.65-.44a7.66,7.66,0,0,1,1.57.12c.29.07.39.46.46.83,0,.08.05.22.17.22s.14,0,.14-.23c0-.42,0-.81-.06-1.22s.05-.75.06-1.12c0-.1-.08-.13-.14-.13s-.16.14-.17.22c-.07.38-.13.86-.46.9a13.61,13.61,0,0,1-1.57.05c-.53,0-.65,0-.65-.61v-1.89Z" transform="translate(-21.01 -184.28)"/><path class="cls-1" d="M118.32,373.43c0,.82.07,1.08-.85,1.08-.12,0-.33,0-.33.16s.1.17.22.17c.49,0,1-.05,1.48-.05s1,.05,1.46.05c.12,0,.22,0,.22-.17s-.22-.16-.34-.16c-.9,0-.85-.25-.85-1.08V368.1c0-.82-.06-1.07.85-1.07.12,0,.34,0,.34-.17s-.1-.18-.22-.18c-.49,0-1,.05-1.48.05s-1-.05-1.46-.05c-.13,0-.22,0-.22.18s.21.17.33.17c.91,0,.85.25.85,1.07v5.33Z" transform="translate(-21.01 -184.28)"/><path class="cls-2" d="M124.34,373.39c0,.83.05,1.12-.86,1.12-.12,0-.33,0-.33.13s.1.2.22.2c.27,0,.56-.05.82-.05,1.07,0,2.11.05,3.17.05a3.38,3.38,0,0,0,2.09-.51,2.22,2.22,0,0,0,1-1.82,2.47,2.47,0,0,0-2.33-2.3,2,2,0,0,0,1.81-1.78,1.84,1.84,0,0,0-1.22-1.63,6.91,6.91,0,0,0-2.58-.32,16.93,16.93,0,0,0-2.58.16c-.14,0-.6.09-.6.31s.06.12.14.12.38-.1.62-.1c.68,0,.59.57.59,1.09v5.35Zm1-5.7c0-.22,0-.57.13-.74s.79-.23,1.07-.23c1.13,0,2.21.47,2.21,1.77a1.61,1.61,0,0,1-.48,1.2,2.19,2.19,0,0,1-1.59.47H126c-.57,0-.64,0-.64-.62v-1.83Zm0,3.32c0-.71.12-.6.88-.6a3.9,3.9,0,0,1,2.07.38,1.91,1.91,0,0,1,1,1.76,2.08,2.08,0,0,1-.65,1.5,2.3,2.3,0,0,1-1.68.52,2.86,2.86,0,0,1-1.25-.2c-.4-.25-.38-.85-.38-1.26V371Z" transform="translate(-21.01 -184.28)"/><path class="cls-1" d="M140.07,373.1l-4.6-6c-.16-.21-.26-.39-.53-.46h-1.61c-.14,0-.31,0-.31.21s.21.14.32.14c.91,0,.85.26.85,1.08v5.32c0,.81.06,1.08-.85,1.08-.12,0-.34,0-.34.13s.1.2.23.2c.38,0,.77-.05,1.13-.05s.75.05,1.14.05c.13,0,.22-.05.22-.2s-.21-.13-.33-.13c-.91,0-.85-.27-.85-1.08v-5.88l5.46,7.1c.06.1.18.31.33.31s.09-.18.09-.25v-6.61c0-.81-.05-1.08.85-1.08.13,0,.34,0,.34-.14a.2.2,0,0,0-.22-.21c-.38,0-.74.05-1.13.05s-.75-.05-1.14-.05c-.13,0-.23.06-.23.21s.21.14.32.14c.91,0,.86.26.86,1.08v5Z" transform="translate(-21.01 -184.28)"/><path class="cls-1" d="M145,373.43c0,.82.07,1.08-.84,1.08-.12,0-.33,0-.33.16s.1.17.22.17c.5,0,1-.05,1.48-.05s1,.05,1.46.05c.12,0,.22,0,.22-.17s-.22-.16-.34-.16c-.9,0-.85-.25-.85-1.08V368.1c0-.82-.06-1.07.85-1.07.12,0,.34,0,.34-.17s-.1-.18-.22-.18c-.49,0-1,.05-1.48.05s-1-.05-1.46-.05c-.13,0-.22,0-.22.18s.21.17.33.17c.91,0,.84.25.84,1.07v5.33Z" transform="translate(-21.01 -184.28)"/><path class="cls-1" d="M153.61,367.67c0-.66,0-.64.59-.64h.75a1.2,1.2,0,0,1,1.05.34,3,3,0,0,1,.38.88c0,.08.05.18.14.18s.16-.12.16-.22l.08-1.59c0-.09.06-.47-.12-.47s-.16.12-.2.22c-.13.36-.45.3-.79.3h-4.72c-.21,0-.48,0-.65-.1s-.09-.16-.1-.27,0-.14-.12-.14-.14.09-.17.18l-.51,1.69a1.09,1.09,0,0,0-.08.31c0,.09,0,.16.13.16s.24-.22.29-.31c.63-1,1.11-1.16,2.29-1.16.4,0,.57-.09.57.38v6c0,.82.06,1.08-.84,1.08-.12,0-.33,0-.33.16s.1.17.22.17c.49,0,1-.05,1.48-.05s1,.05,1.46.05c.12,0,.22,0,.22-.17s-.22-.16-.34-.16c-.9,0-.84-.25-.84-1.08v-5.76Z" transform="translate(-21.01 -184.28)"/><path class="cls-1" d="M160,373.43c0,.82.07,1.08-.84,1.08-.12,0-.33,0-.33.16s.1.17.22.17c.5,0,1-.05,1.48-.05s1,.05,1.46.05c.12,0,.22,0,.22-.17s-.22-.16-.34-.16c-.9,0-.85-.25-.85-1.08V368.1c0-.82-.07-1.07.85-1.07.12,0,.34,0,.34-.17s-.1-.18-.22-.18c-.5,0-1,.05-1.48.05s-1-.05-1.46-.05c-.13,0-.22,0-.22.18s.21.17.33.17c.91,0,.84.25.84,1.07v5.33Z" transform="translate(-21.01 -184.28)"/><path class="cls-1" d="M165.89,373.43c0,.82.07,1.08-.85,1.08-.12,0-.33,0-.33.16s.1.17.22.17c.49,0,1-.05,1.48-.05s1,.05,1.46.05c.12,0,.22,0,.22-.17s-.22-.16-.34-.16c-.9,0-.84-.25-.84-1.08V368.1c0-.82-.07-1.07.84-1.07.12,0,.34,0,.34-.17s-.1-.18-.22-.18c-.5,0-1,.05-1.48.05s-1-.05-1.46-.05c-.13,0-.22,0-.22.18s.21.17.33.17c.91,0,.85.25.85,1.07v5.33Z" transform="translate(-21.01 -184.28)"/><path class="cls-1" d="M120.35,355.53c0-.43.08-.71-.36-.88a6,6,0,0,0-2.09-.36c-2.5,0-4.94,1.79-4.94,4.4a3.84,3.84,0,0,0,1.51,3.06,4.85,4.85,0,0,0,3.17,1,5.16,5.16,0,0,0,2.77-.71c.3-.2.23-.34.23-.68v-1.5c0-.19,0-.57.14-.71s.29-.09.4-.1l.25,0c.12,0,.25,0,.25-.17s-.12-.16-.22-.16c-.46,0-.9.05-1.34.05s-.94-.05-1.4-.05c-.12,0-.3,0-.3.17s.18.16.31.16c.75,0,.88.12.88.85v1.08c0,.31,0,.87-.25,1.09a2.57,2.57,0,0,1-1.48.36,3.46,3.46,0,0,1-2.81-1.16,3.88,3.88,0,0,1-.94-2.65,4.6,4.6,0,0,1,.94-2.78,3.19,3.19,0,0,1,2.61-1.14c2.3,0,2.06,1.68,2.5,1.68.14,0,.2-.13.2-.26l0-.55Z" transform="translate(-21.01 -184.28)"/><path class="cls-1" d="M126.3,355.52c0-.22,0-.51.21-.6a4.22,4.22,0,0,1,1-.08,5.26,5.26,0,0,1,1.43.13,1.21,1.21,0,0,1,.81.77l.2.37c0,.09.09.26.21.26s.12-.2.12-.27V355c0-.17.07-.48-.18-.48-1.11,0-2.2.05-3.32.05-.81,0-1.64-.05-2.45-.05a.2.2,0,0,0-.22.2c0,.16.21.16.34.16.9,0,.85.26.85,1.07v5.29c0,.83.05,1.09-.85,1.09-.13,0-.34,0-.34.16s.1.2.22.2.55-.05.81-.05h5.08c.1,0,.13,0,.14-.08l.2-1.38a1.31,1.31,0,0,0,.05-.31c0-.09,0-.14-.13-.14s-.25.35-.29.44c-.44,1.15-1.16,1.17-2.28,1.17s-1.6,0-1.6-1.21v-2.26c0-.44.13-.44.65-.44a7.67,7.67,0,0,1,1.57.12c.29.06.39.45.46.83,0,.08.05.22.17.22s.14,0,.14-.23c0-.42,0-.81-.07-1.22s.05-.75.07-1.12a.13.13,0,0,0-.14-.13c-.12,0-.16.14-.17.22-.06.38-.13.86-.46.9a13.62,13.62,0,0,1-1.57.05c-.53,0-.65,0-.65-.61v-1.89Z" transform="translate(-21.01 -184.28)"/><path class="cls-1" d="M140.13,360.91l-4.6-6c-.16-.21-.26-.39-.53-.46h-1.61c-.14,0-.31,0-.31.21s.21.14.33.14c.91,0,.85.26.85,1.08v5.32c0,.81.06,1.08-.85,1.08-.12,0-.34,0-.34.13s.1.2.23.2c.38,0,.77-.05,1.13-.05s.75.05,1.14.05c.13,0,.22-.05.22-.2s-.21-.13-.33-.13c-.91,0-.85-.27-.85-1.08v-5.88l5.46,7.1c.07.1.18.31.33.31s.09-.18.09-.25v-6.61c0-.81-.05-1.08.85-1.08.13,0,.34,0,.34-.14a.2.2,0,0,0-.22-.21c-.38,0-.74.05-1.13.05s-.75-.05-1.14-.05a.21.21,0,0,0-.23.21c0,.14.21.14.33.14.91,0,.86.26.86,1.08v5Z" transform="translate(-21.01 -184.28)"/><path class="cls-1" d="M145,361.24c0,.82.06,1.08-.85,1.08-.12,0-.33,0-.33.16s.1.17.22.17c.5,0,1-.05,1.48-.05s1,.05,1.46.05c.12,0,.22,0,.22-.17s-.22-.16-.34-.16c-.9,0-.84-.25-.84-1.08v-5.33c0-.82-.07-1.07.84-1.07.12,0,.34,0,.34-.17s-.11-.18-.22-.18c-.49,0-1,.05-1.48.05s-1-.05-1.46-.05c-.13,0-.22,0-.22.18s.21.17.33.17c.91,0,.85.25.85,1.07v5.33Z" transform="translate(-21.01 -184.28)"/><path class="cls-2" d="M149.86,358.51a4.49,4.49,0,0,0,4.54,4.24,4.24,4.24,0,1,0,0-8.47,4.48,4.48,0,0,0-4.54,4.23Zm7.88,0a4,4,0,0,1-.81,2.63,3.23,3.23,0,0,1-5,.09,4.69,4.69,0,0,1-.05-5.37,3.23,3.23,0,0,1,2.58-1.22,3.18,3.18,0,0,1,2.46,1.18,4,4,0,0,1,.86,2.69Z" transform="translate(-21.01 -184.28)"/><polygon class="cls-1" points="41.46 182.12 42.26 181.45 39.83 178.56 42.72 176.13 42.05 175.33 39.16 177.76 36.75 174.88 35.95 175.55 38.36 178.43 35.48 180.84 36.16 181.64 39.03 179.23 41.46 182.12 41.46 182.12"/><path class="cls-2" d="M50,343.8c-.75,0-.77.18-1.11-.51l-1.15-2.37c-.41-.83-.35-.71.36-1.51l1.05-1.2a3.31,3.31,0,0,1,.73-.66c.52-.25.84.41,1.06.86.08.17.25.5.51.38s.09-.26,0-.36c-.31-.64-.71-1.27-1-1.9s-.68-1.56-1.05-2.33c0-.09-.15-.25-.3-.18s-.1.46,0,.63c.42.85-.45,1.64-1,2.25l-7,7.77c-.09.09-.28.27-.21.41s.36.13.53.11l10.35-.89a6.59,6.59,0,0,1,1.7,0,1.25,1.25,0,0,1,.7.73c.08.16.24.49.48.37s0-.55-.11-.72c-.24-.49-.54-.94-.78-1.43s-.41-1-.64-1.49c-.08-.17-.2-.42-.41-.32s-.08.41,0,.56c.19.4.52,1.19-.06,1.47a3.33,3.33,0,0,1-1.08.22L50,343.8Zm-5.56.52c-.1,0-.6.1-.67,0s.33-.46.39-.53l2.38-2.62s.25-.27.32-.31.33.33.39.44l1,2c0,.07.38.59.2.68a1.06,1.06,0,0,1-.23,0l-3.75.34Z" transform="translate(-21.01 -184.28)"/><path class="cls-1" d="M35.18,326.16c-.5.22-.76.23-.77.82a11,11,0,0,0,.45,3.07,6.52,6.52,0,0,0,8,4.46,6.37,6.37,0,0,0,4.08-8,7.82,7.82,0,0,0-1.86-3.08c-.46-.48-.49-.45-1.08-.3l-1.52.39a.21.21,0,0,0-.17.28c.16.5,3.12-.22,4.05,2.63a4.46,4.46,0,0,1-.82,4.11,6.36,6.36,0,0,1-3.24,2.31c-2.76.9-5.91.23-6.91-2.86-.93-2.85,1.38-3.76,1.23-4.24,0-.15-.16-.17-.31-.12l-1.15.52Z" transform="translate(-21.01 -184.28)"/><path class="cls-2" d="M40.86,318.49c-.73-.18-.79-.05-.91-.82l-.41-2.6c-.14-.92-.12-.78.79-1.34l1.36-.84a3.33,3.33,0,0,1,.89-.42c.57-.09.69.63.77,1.13,0,.19.09.55.37.51s.16-.22.14-.34c-.11-.71-.3-1.42-.41-2.11-.13-.84-.19-1.69-.32-2.54,0-.1-.06-.28-.24-.26s-.23.41-.2.6c.15.94-.91,1.44-1.61,1.86l-9,5.38c-.11.06-.35.17-.32.32s.31.23.47.26l10.16,2.17A6.61,6.61,0,0,1,44,320a1.25,1.25,0,0,1,.46.91c0,.17.08.54.35.49s.13-.53.1-.72c-.09-.54-.25-1.06-.33-1.59s-.09-1.08-.18-1.62c0-.19-.07-.46-.3-.42s-.2.36-.17.54c.07.44.15,1.29-.49,1.39a3.31,3.31,0,0,1-1.09-.1l-1.52-.35Zm-5.47-1.13c-.1,0-.6-.08-.62-.23s.45-.35.52-.4l3-1.81s.32-.19.4-.2.22.42.24.53l.35,2.2c0,.08.19.68,0,.71a1.05,1.05,0,0,1-.24,0l-3.69-.77Z" transform="translate(-21.01 -184.28)"/><path class="cls-2" d="M40.54,305.89c1.24,0,1.66-.13,1.69,1.23,0,.19,0,.5.22.5s.27-.16.27-.33c0-.41-.09-.79-.1-1.22,0-1.39,0-2.83,0-4.26a7.24,7.24,0,0,0-1.67-5,6.2,6.2,0,0,0-4.68-2,6,6,0,0,0-4.66,2.52,8.17,8.17,0,0,0-1.42,5c0,.77.33,5.55,1,5.54a.2.2,0,0,0,.21-.22,7,7,0,0,1-.23-1c0-.75.78-.65,1.36-.66l8-.14Zm-8.41-1.38c-.31,0-.91,0-1.15-.19a3.19,3.19,0,0,1-.36-1.66,5.66,5.66,0,0,1,5.84-6.08,6.12,6.12,0,0,1,4.19,1.53,5.33,5.33,0,0,1,1.6,4.15c0,1.68-.37,2.08-2.09,2.11l-8,.14Z" transform="translate(-21.01 -184.28)"/><path class="cls-1" d="M32.62,288c-.33,0-.76,0-.85-.42a6.29,6.29,0,0,1,.06-1.47,7.86,7.86,0,0,1,.45-2.09A1.81,1.81,0,0,1,33.57,283l.57-.22c.14,0,.4-.09.42-.26s-.27-.21-.38-.22l-1.65-.2c-.25,0-.7-.18-.74.18-.2,1.63-.32,3.26-.52,4.91-.15,1.19-.37,2.41-.52,3.6a.3.3,0,0,0,.25.36c.23,0,.27-.28.29-.47.16-1.33.54-1.2,1.73-1.05l7.82,1c1.23.15,1.62.12,1.46,1.45,0,.19,0,.5.17.53s.31-.12.33-.29c0-.38,0-.82.07-1.2l.92-7.51c0-.15,0-.19-.09-.22l-2-.54a2,2,0,0,0-.45-.13c-.13,0-.22,0-.23.17s.47.43.6.5c1.61.86,1.52,1.92,1.32,3.57s-.31,2.36-2.08,2.14l-3.34-.41c-.65-.08-.63-.27-.54-1a11.43,11.43,0,0,1,.46-2.3c.15-.41.74-.49,1.31-.52.12,0,.34,0,.36-.21s0-.21-.32-.25c-.62-.05-1.2-.09-1.82-.12s-1.1-.21-1.64-.3a.19.19,0,0,0-.22.19c0,.17.18.26.3.29.54.17,1.24.35,1.24.84a20,20,0,0,1-.21,2.33c-.1.79-.12,1-1,.85L32.62,288Z" transform="translate(-21.01 -184.28)"/><path class="cls-1" d="M33.91,274.43c-.33,0-.58,0-.67.34l-.58,2.17c-.06.21-.24.52.06.6s.37-.18.42-.37c.27-1,.4-1.05,1.34-.72l8.13,2.8c.9.3,1.37.49,1.09,1.54,0,.17-.11.49.11.55s.26-.07.3-.24c.15-.54.22-1.12.37-1.68s.38-1.1.53-1.66c0-.17.11-.41-.11-.47s-.35.33-.4.51c-.36,1.33-1.3,1.05-2.42.67l-7.56-2.61,0-.13L45,274.58c.14,0,.38,0,.43-.19s-.15-.28-.26-.37l-8.61-6.75,0-.13,8.47,2.27c.34.09,1,.24,1.21.63a1.62,1.62,0,0,1,0,.95c0,.19-.19.57.09.64s.28-.15.32-.29c.2-.73.32-1.5.52-2.24s.4-1.18.56-1.77c0-.15.08-.36-.13-.42s-.35.33-.4.51a.91.91,0,0,1-.44.66,2.71,2.71,0,0,1-1.36-.14l-7.72-2.07c-.34-.09-1.09-.21-1.29-.51s0-.62.07-.86.08-.46-.18-.53-.3.28-.35.49l-.56,2.08c-.06.21-.1.39.11.57l7.79,6.21-9.44,1.12Z" transform="translate(-21.01 -184.28)"/><path class="cls-1" d="M47.57,263.11c1.13.46,1.53.51,1,1.77-.06.16-.2.44,0,.54s.29,0,.36-.21c.28-.68.48-1.39.75-2.07s.61-1.3.88-2c.06-.16.09-.32-.11-.4s-.34.22-.4.38c-.52,1.23-.81,1-2,.57l-7.36-3c-1.13-.46-1.51-.5-1-1.76.07-.16.19-.47,0-.56s-.31,0-.37.2c-.28.68-.48,1.39-.75,2.07s-.61,1.3-.88,2c-.07.18-.07.33.13.41s.35-.19.41-.35c.51-1.26.81-1,1.94-.57l7.36,3Z" transform="translate(-21.01 -184.28)"/><path class="cls-2" d="M49.58,254.84c-.47-.59-.59-.53-.22-1.2l1.28-2.3c.45-.81.38-.69,1.45-.57l1.59.17a3.32,3.32,0,0,1,1,.22c.51.28.15.92-.09,1.37-.09.17-.27.49,0,.63s.26-.08.32-.18c.35-.63.64-1.31,1-1.92s.89-1.45,1.31-2.2c0-.08.12-.26,0-.35s-.43.18-.53.35c-.46.83-1.6.57-2.41.48l-10.39-1.29c-.12,0-.38-.08-.45.06s.11.37.21.49l6.67,8a6.6,6.6,0,0,1,1,1.38,1.25,1.25,0,0,1-.2,1c-.08.15-.26.47,0,.6s.43-.34.52-.51c.26-.47.46-1,.72-1.46s.59-.91.86-1.38c.09-.17.23-.41,0-.52s-.38.17-.46.32c-.22.39-.68,1.11-1.24.8a3.31,3.31,0,0,1-.8-.75l-1-1.21ZM46,250.58c-.07-.08-.42-.43-.35-.57s.57,0,.66,0l3.52.44s.37,0,.44.09-.08.46-.14.56L49,253.07c0,.07-.27.65-.44.55a1,1,0,0,1-.17-.16L46,250.58Z" transform="translate(-21.01 -184.28)"/><path class="cls-1" d="M62.09,233.59c1.31-.59,2.57-.86,3.72.17a2.71,2.71,0,0,1-.06,3.83,2.68,2.68,0,0,1-3.92.3c-.13-.09-.49-.41-.66-.23s0,.36.09.47a12.8,12.8,0,0,0,1.07,1c.26.23.61.63,1,.52A6.14,6.14,0,0,0,65.84,238a4.8,4.8,0,0,0,1.32-3A3.58,3.58,0,0,0,66,232.21a3.53,3.53,0,0,0-2.33-.85,6.31,6.31,0,0,0-2.17.62c-1.24.57-3.17,1.7-4.41.59-1-.94-.72-2.29.13-3.24,1-1.12,1.93-1.07,3.21-.5.14,0,.4.23.54.07a.21.21,0,0,0,0-.31l-1.17-1c-.27-.22-.42-.4-.77-.22A7.93,7.93,0,0,0,57,229.06a3.48,3.48,0,0,0-.07,5c1.28,1.15,2.8.65,4.21,0l1-.45Z" transform="translate(-21.01 -184.28)"/><path class="cls-1" d="M70.63,217.9c-.41-.36-.52-.6-1.06-.37a11,11,0,0,0-2.62,1.66,6.52,6.52,0,0,0-.81,9.14,6.37,6.37,0,0,0,9,.48,7.83,7.83,0,0,0,2.06-2.95c.25-.62.21-.63-.16-1.1l-1-1.23a.21.21,0,0,0-.33,0c-.39.35,1.47,2.76-.76,4.77a4.46,4.46,0,0,1-4.09.92,6.35,6.35,0,0,1-3.43-2c-1.94-2.16-2.61-5.3-.2-7.48,2.23-2,4-.27,4.38-.61.12-.1.09-.21,0-.33l-.94-.84Z" transform="translate(-21.01 -184.28)"/><path class="cls-1" d="M80.07,222.13c.7,1,1,1.26-.11,2-.14.1-.41.26-.26.47s.27.12.41,0c.6-.42,1.16-.91,1.76-1.33s1.22-.76,1.82-1.18c.14-.1.25-.22.13-.39s-.4,0-.55.1c-1.11.75-1.24.42-2-.59l-4.55-6.5c-.7-1-1-1.24.12-2,.14-.1.41-.29.27-.49s-.28-.13-.43,0c-.6.42-1.16.91-1.76,1.33s-1.22.76-1.82,1.18c-.16.11-.24.24-.11.41s.4,0,.54-.07c1.11-.78,1.24-.42,1.94.58l4.55,6.5Z" transform="translate(-21.01 -184.28)"/><path class="cls-1" d="M83.26,210c-.16-.29-.42-.63-.16-.93a6.32,6.32,0,0,1,1.23-.81,7.87,7.87,0,0,1,2-.86,1.81,1.81,0,0,1,1.6.42l.52.33c.12.09.31.27.46.19s0-.34,0-.44L88,206.41c-.12-.22-.26-.67-.58-.5-1.44.8-2.82,1.65-4.28,2.46-1,.58-2.17,1.11-3.22,1.7a.3.3,0,0,0-.15.41c.11.2.38.05.55,0,1.17-.65,1.29-.27,1.87.78L86,218.11c.6,1.08.86,1.38-.31,2-.17.09-.43.26-.33.45a.29.29,0,0,0,.43.09c.34-.19.67-.46,1-.65l6.62-3.67c.14-.07.18-.08.13-.2l-.74-1.93a2,2,0,0,0-.16-.44.18.18,0,0,0-.27-.09c-.2.11-.07.64-.05.78.25,1.81-.66,2.36-2.12,3.17s-2.09,1.14-3-.42l-1.63-2.95c-.32-.58-.15-.67.53-1a11.43,11.43,0,0,1,2.13-1c.42-.12.84.31,1.19.75.07.09.23.25.38.17s.17-.14,0-.41c-.32-.53-.63-1-1-1.54s-.48-1-.72-1.5a.19.19,0,0,0-.28-.07c-.15.09-.1.3-.06.41.19.54.45,1.21.06,1.5a19.92,19.92,0,0,1-2,1.2c-.69.38-.85.47-1.29-.33L83.26,210Z" transform="translate(-21.01 -184.28)"/><path class="cls-1" d="M104.56,209,95,203.14a1.37,1.37,0,0,0-1-.35l-2.24.86c-.2.08-.43.19-.32.46s.37.09.53,0c1.26-.49,1.31-.09,1.75,1l2.84,7.39c.43,1.12.67,1.47-.6,2-.16.06-.49.13-.4.36s.25.21.43.15c.52-.2,1-.48,1.54-.68s1.08-.33,1.62-.54c.18-.07.28-.19.2-.39s-.36-.07-.52,0c-1.26.49-1.32.07-1.75-1l-3.13-8.17,11.38,7c.15.11.42.34.62.26s0-.3,0-.39l-3.52-9.18c-.43-1.12-.65-1.47.6-2,.18-.07.47-.18.39-.38a.3.3,0,0,0-.42-.17c-.52.2-1,.47-1.54.68s-1.08.33-1.62.54a.31.31,0,0,0-.21.41c.08.2.37.09.53,0,1.26-.49,1.33-.1,1.77,1l2.66,6.94Z" transform="translate(-21.01 -184.28)"/><path class="cls-1" d="M112.65,198.49c-.21-1-.2-.93.65-1.11l1.1-.23a1.8,1.8,0,0,1,1.64.17,4.37,4.37,0,0,1,.82,1.17c.06.11.13.25.26.22s.19-.22.16-.37L116.9,196c0-.13-.05-.7-.32-.65s-.19.22-.22.38c-.08.57-.57.58-1.06.68l-6.87,1.46c-.3.06-.69.21-1,0s-.18-.2-.24-.37-.1-.2-.21-.17-.18.18-.19.32l-.21,2.62a1.61,1.61,0,0,0,0,.48c0,.13.1.22.24.19s.27-.39.32-.54c.59-1.71,1.25-2,3-2.39.59-.12.81-.31.95.37l1.86,8.76c.25,1.19.43,1.55-.9,1.83-.17,0-.48.08-.43.33s.2.21.37.18c.72-.15,1.42-.38,2.14-.53s1.42-.22,2.14-.38c.17,0,.31-.11.27-.31s-.37-.16-.54-.12c-1.31.28-1.31-.1-1.56-1.31l-1.78-8.39Z" transform="translate(-21.01 -184.28)"/><path class="cls-1" d="M122.3,205.42c.15,1.21.29,1.58-1.05,1.75-.17,0-.48,0-.45.29s.18.23.36.21c.73-.09,1.45-.26,2.18-.35s1.43-.1,2.16-.19c.17,0,.32-.08.3-.29s-.35-.19-.53-.17c-1.33.14-1.29-.21-1.44-1.44l-1-7.88c-.15-1.21-.29-1.56,1.06-1.73.17,0,.5-.06.47-.31s-.19-.25-.36-.23c-.73.09-1.45.26-2.18.35s-1.43.1-2.16.19c-.19,0-.32.1-.29.31s.34.21.51.19c1.34-.17,1.29.21,1.44,1.42l1,7.88Z" transform="translate(-21.01 -184.28)"/><path class="cls-2" d="M130.43,203c.28-.7.16-.78.93-.79l2.63,0c.93,0,.79,0,1.22,1l.64,1.46a3.3,3.3,0,0,1,.29.94c0,.58-.73.59-1.23.6-.19,0-.56,0-.56.3s.2.19.31.19c.72,0,1.45-.1,2.15-.12.85,0,1.7,0,2.56,0,.1,0,.29,0,.29-.2s-.37-.28-.57-.28c-.95,0-1.3-1.1-1.62-1.85l-4.08-9.65c0-.12-.12-.37-.28-.36s-.27.28-.32.43l-3.57,9.76a6.59,6.59,0,0,1-.71,1.54,1.25,1.25,0,0,1-1,.33c-.17,0-.54,0-.54.28s.51.2.7.2c.54,0,1.08-.1,1.62-.11s1.08.06,1.63,0c.19,0,.46,0,.46-.24s-.33-.25-.51-.24c-.45,0-1.3,0-1.31-.67a3.3,3.3,0,0,1,.25-1.07l.56-1.46Zm1.88-5.26c0-.1.16-.58.32-.59s.28.5.32.57l1.37,3.27s.14.35.14.42-.44.16-.56.17l-2.23,0c-.08,0-.7.09-.7-.1a1,1,0,0,1,.05-.23l1.27-3.55Z" transform="translate(-21.01 -184.28)"/><path class="cls-2" d="M142.87,204.93c-.15,1.21-.1,1.61-1.44,1.44-.17,0-.48-.08-.51.17s.12.27.3.29c.73.09,1.47.1,2.2.19s1.41.25,2.14.34c.17,0,.33,0,.36-.21s-.3-.27-.47-.29c-1.32-.18-1.2-.52-1.05-1.75l.36-3c0-.17.06-.64.19-.76s.28-.06.43,0c1.46.18,1.42.33,1.95,1.76l1.42,4c.12.31.19.69.57.73l2,.25c.15,0,.35,0,.37-.17s-.31-.31-.47-.33c-.85-.1-1-.87-1.31-1.58l-1.19-3.19c-.21-.53-.41-1.24-1-1.41a3.16,3.16,0,0,0,3.4-2.6c.25-2-1.45-3.14-3.27-3.37-1.1-.13-2.18-.19-3.29-.33-.62-.08-1.26-.23-1.87-.31-.21,0-.35,0-.38.25s.28.27.45.29c1.35.16,1.2.52,1.05,1.75l-1,7.86Zm2.5-7.84c.17-1.34.23-1.53,1.69-1.35a2.53,2.53,0,0,1,2.43,3.07,2.37,2.37,0,0,1-1.12,1.85,3.7,3.7,0,0,1-2.48.34c-.33,0-1,0-.94-.47l.42-3.44Z" transform="translate(-21.01 -184.28)"/><path class="cls-1" d="M159.53,207.64l-1.22-8.84a2.16,2.16,0,0,1,0-.81c.09-.34.88-.08,1-.07s.38.06.44-.16-.13-.27-.3-.32c-.58-.15-1.16-.23-1.72-.38s-1.29-.43-2-.61c-.17,0-.4-.09-.45.12s.24.37.43.42c.86.23.93.87,1,1.62l1.45,10.67c0,.13,0,.56.2.61s.37-.34.44-.44l6.34-8.34a3.8,3.8,0,0,1,1-1,1.21,1.21,0,0,1,.83,0c.17,0,.46.08.52-.14a.24.24,0,0,0-.2-.31c-.52-.14-1.07-.21-1.59-.35s-1.06-.37-1.59-.5c-.19-.05-.43-.05-.49.17s.59.4.76.45c.34.09.76.3.64.73a3.57,3.57,0,0,1-.52.88l-5.08,6.69Z" transform="translate(-21.01 -184.28)"/><path class="cls-1" d="M173.64,202.6c0-.33.1-.57-.23-.72l-2.05-.91c-.2-.09-.47-.32-.6,0s.12.39.3.47c1,.43,1,.56.51,1.43l-4,7.59c-.44.84-.7,1.28-1.69.84-.16-.07-.47-.19-.56,0s0,.27.19.34c.51.23,1.08.39,1.6.63s1,.54,1.56.78c.16.07.39.17.48,0s-.27-.4-.45-.47c-1.26-.56-.84-1.45-.29-2.5l3.76-7.06.12.06-.51,10.51c0,.14-.06.38.12.45s.3-.1.41-.2l8-7.45.12.06-3.57,8c-.14.32-.4,1-.81,1.1a1.62,1.62,0,0,1-.94-.12c-.18-.08-.53-.28-.65,0s.1.3.24.36c.69.31,1.43.55,2.14.87s1.1.57,1.67.83c.14.06.34.13.43-.06s-.27-.4-.45-.47a.91.91,0,0,1-.59-.54c-.1-.34.23-1,.36-1.32l3.25-7.3c.14-.32.38-1,.7-1.19s.61.1.84.21.44.15.55-.09-.23-.34-.43-.42l-2-.87c-.19-.09-.37-.17-.58,0l-7.36,6.72.37-9.5Z" transform="translate(-21.01 -184.28)"/><path class="cls-1" d="M196.75,216.75c.2-.26.41-.64.78-.52a6.28,6.28,0,0,1,1.25.79,7.93,7.93,0,0,1,1.58,1.44,1.81,1.81,0,0,1,.27,1.63l-.09.61c0,.14-.12.39,0,.49s.31-.13.38-.22l1-1.33c.15-.2.51-.51.21-.73-1.31-1-2.66-1.91-4-2.91-1-.72-1.9-1.53-2.86-2.25a.3.3,0,0,0-.44,0c-.14.19.11.37.26.49,1.07.8.77,1.07,0,2l-4.74,6.29c-.75,1-.92,1.34-2,.54-.15-.12-.41-.29-.54-.12a.29.29,0,0,0,.09.43c.31.23.7.43,1,.66l6,4.56c.12.09.14.13.24,0l1.47-1.46a1.88,1.88,0,0,0,.34-.32.18.18,0,0,0,0-.29c-.19-.14-.61.2-.74.27-1.55,1-2.42.35-3.75-.65s-1.89-1.45-.82-2.87l2-2.69c.4-.52.55-.41,1.17.06a11.37,11.37,0,0,1,1.76,1.55c.28.33.06.89-.2,1.4-.05.1-.13.31,0,.41s.19.1.38-.15c.36-.51.68-1,1-1.51s.74-.85,1.08-1.27a.19.19,0,0,0-.05-.28c-.14-.1-.31,0-.4.11-.42.39-.92.9-1.35.66a20.14,20.14,0,0,1-1.92-1.35c-.63-.48-.77-.58-.23-1.31l1.69-2.24Z" transform="translate(-21.01 -184.28)"/><path class="cls-1" d="M208.65,227.27c.71-.69.68-.66,1.29,0l.78.81a1.8,1.8,0,0,1,.73,1.48,4.35,4.35,0,0,1-.56,1.32c-.06.11-.14.24,0,.34s.29,0,.4-.06l1.78-1.56c.1-.09.57-.41.38-.61s-.29,0-.44,0c-.52.24-.79-.18-1.14-.54l-4.88-5.05c-.21-.22-.54-.48-.56-.8s.07-.26.18-.39a.19.19,0,0,0,0-.27c-.12-.12-.25-.06-.37,0l-2.33,1.2a1.66,1.66,0,0,0-.42.24c-.1.09-.13.2,0,.3s.48,0,.63,0c1.76-.41,2.38,0,3.61,1.25.42.43.69.52.19,1l-6.45,6.22c-.88.85-1.09,1.19-2,.21-.12-.12-.32-.36-.5-.19s-.07.29,0,.41c.51.53,1.08,1,1.59,1.53s.94,1.08,1.45,1.61c.12.12.25.21.41.06s-.06-.4-.18-.52c-.93-1-.61-1.16.28-2l6.17-6Z" transform="translate(-21.01 -184.28)"/><path class="cls-1" d="M220.86,243.55c1-.65,1.29-.92,2,.23.09.15.27.43.48.29s.15-.27.06-.42c-.39-.62-.84-1.21-1.23-1.83s-.69-1.26-1.08-1.88c-.1-.16-.22-.25-.4-.14s0,.4,0,.54c.72,1.15.35,1.26-.68,1.91l-6.71,4.19c-1,.65-1.29.92-2-.21-.1-.16-.27-.43-.48-.29a.28.28,0,0,0-.06.42c.35.56.74,1,1.09,1.6,1,1.58,1.92,3.23,2.91,4.8.28.44.45.29.89,0s1.26-.54,1.82-.89c.11-.07.23-.14.14-.29s-.23-.08-.34-.06a4.36,4.36,0,0,1-1.9,0,3.59,3.59,0,0,1-1.67-1.47c-.92-1.48-.35-1.88.89-2.66l6.22-3.89Z" transform="translate(-21.01 -184.28)"/><path class="cls-1" d="M218.54,255.32c-1.1.54-1.4.79-2-.43-.08-.16-.2-.44-.42-.33s-.16.25-.08.41c.32.66.71,1.29,1,1.95s.56,1.32.88,2c.08.16.18.28.37.19s.07-.4,0-.55c-.57-1.21-.22-1.29.89-1.83l7.13-3.48c1.1-.53,1.38-.78,2,.44.08.16.22.45.45.34s.18-.26.1-.42c-.32-.66-.71-1.29-1-1.95s-.56-1.32-.88-2c-.09-.17-.2-.27-.39-.18s-.09.39,0,.55c.6,1.22.22,1.29-.87,1.83l-7.13,3.48Z" transform="translate(-21.01 -184.28)"/><path class="cls-1" d="M231.17,262.55c.92-.35.88-.34,1.2.47l.4,1a1.79,1.79,0,0,1,.09,1.64,4.37,4.37,0,0,1-1,1c-.09.08-.23.17-.18.3s.25.15.39.1l2.25-.74c.13,0,.68-.16.59-.41s-.25-.15-.41-.15c-.58,0-.66-.47-.84-.94l-2.52-6.56c-.11-.29-.31-.65-.2-1s.17-.21.32-.29.18-.13.14-.24-.2-.15-.34-.14l-2.62.2a1.65,1.65,0,0,0-.48.06c-.13,0-.2.14-.15.26s.43.21.59.23c1.78.31,2.2.92,2.83,2.56.21.56.43.75-.22,1l-8.37,3.21c-1.14.44-1.46.67-2-.6-.06-.16-.16-.46-.39-.37s-.18.23-.12.4c.26.69.6,1.35.86,2s.44,1.37.71,2.05c.06.16.15.29.35.22s.1-.39,0-.55c-.48-1.25-.11-1.31,1-1.75l8-3.07Z" transform="translate(-21.01 -184.28)"/><path class="cls-1" d="M234.38,272.7c.32-.08.72-.24.94.09a6.28,6.28,0,0,1,.47,1.4,7.91,7.91,0,0,1,.33,2.11,1.81,1.81,0,0,1-.82,1.44l-.46.41c-.12.09-.34.23-.3.39s.32.1.44.07l1.61-.4c.25-.06.72-.08.63-.44-.4-1.6-.87-3.15-1.27-4.77-.29-1.16-.52-2.39-.81-3.55a.3.3,0,0,0-.36-.25c-.22.06-.15.36-.1.54.32,1.3-.07,1.31-1.24,1.6l-7.64,1.91c-1.2.3-1.56.47-1.88-.83,0-.19-.14-.48-.35-.43a.29.29,0,0,0-.2.39c.09.38.27.77.37,1.15l1.83,7.34c0,.15,0,.19.16.18l2.06-.21a2,2,0,0,0,.47,0c.13,0,.19-.11.16-.24s-.6-.23-.74-.25c-1.81-.23-2.11-1.25-2.51-2.86s-.56-2.31,1.17-2.75l3.27-.81c.64-.16.68,0,.87.78a11.36,11.36,0,0,1,.4,2.31c0,.44-.52.73-1,1-.11,0-.3.16-.26.32s.09.2.39.12c.6-.17,1.15-.35,1.74-.53s1.11-.2,1.64-.31a.19.19,0,0,0,.14-.25c0-.17-.26-.17-.38-.17-.57,0-1.29.12-1.46-.33a20.55,20.55,0,0,1-.64-2.25c-.19-.77-.23-.94.65-1.16l2.72-.68Z" transform="translate(-21.01 -184.28)"/><path class="cls-2" d="M228.24,284.87c-1.21.15-1.58.29-1.75-1.05,0-.17,0-.48-.29-.45s-.23.18-.21.36c.09.73.26,1.45.35,2.18s.1,1.43.19,2.16c0,.17.08.32.29.3s.19-.36.17-.53c-.14-1.33.21-1.29,1.44-1.44l3-.36c.17,0,.63-.1.78,0s.13.26.15.41c.18,1.46,0,1.46-1.24,2.32l-3.51,2.34c-.27.19-.62.35-.57.73l.25,2c0,.15.06.34.25.32s.23-.38.21-.53c-.1-.85.59-1.22,1.22-1.65l2.81-1.92c.47-.33,1.1-.7,1.12-1.33a3.16,3.16,0,0,0,3.35,2.67c2-.25,2.7-2.16,2.47-4-.13-1.09-.34-2.16-.48-3.28-.08-.62-.08-1.28-.15-1.89,0-.21-.12-.34-.33-.31s-.19.33-.17.51c.17,1.35-.21,1.29-1.44,1.44l-7.86,1Zm8.22.53c1.34-.16,1.54-.15,1.72,1.31a2.53,2.53,0,0,1-2.39,3.1,2.36,2.36,0,0,1-2.07-.64,3.7,3.7,0,0,1-.93-2.32c0-.33-.25-1,.23-1l3.44-.42Z" transform="translate(-21.01 -184.28)"/><path class="cls-2" d="M230.82,298.15c.69.3.77.19.76,1l0,2.63c0,.93,0,.79-1,1.18l-1.48.59a3.33,3.33,0,0,1-1,.25c-.58,0-.57-.75-.56-1.25,0-.19,0-.56-.28-.57s-.2.19-.2.31c0,.72.05,1.45,0,2.15,0,.85-.11,1.7-.12,2.55,0,.1,0,.29.19.29s.3-.36.3-.56c0-.95,1.15-1.26,1.91-1.55l9.78-3.74c.12,0,.37-.11.37-.26s-.27-.28-.42-.34l-9.63-3.9a6.63,6.63,0,0,1-1.51-.76,1.25,1.25,0,0,1-.29-1c0-.17,0-.54-.26-.55s-.22.5-.23.69c0,.54.06,1.09,0,1.63s-.1,1.08-.11,1.63c0,.19,0,.46.22.47s.26-.33.26-.5c0-.44.08-1.3.72-1.28a3.31,3.31,0,0,1,1.06.29l1.44.61Zm5.19,2.07c.1,0,.58.18.58.34s-.51.26-.59.3l-3.31,1.26s-.35.13-.43.13-.15-.45-.14-.56l0-2.23c0-.08-.07-.7.13-.7a1.07,1.07,0,0,1,.23.06l3.5,1.4Z" transform="translate(-21.01 -184.28)"/><path class="cls-2" d="M228.61,310.52c-1.2-.19-1.6-.16-1.39-1.49,0-.17.1-.48-.15-.51s-.27.11-.3.29c-.12.73-.15,1.46-.27,2.19s-.3,1.4-.42,2.13c0,.17,0,.33.2.37s.28-.29.31-.46c.23-1.32.56-1.19,1.78-1l2.94.47c.17,0,.63.08.75.22s.05.28,0,.43c-.23,1.45-.38,1.41-1.83,1.89l-4,1.28c-.31.11-.69.17-.75.55l-.32,2c0,.15,0,.35.16.38s.32-.3.35-.46c.13-.84.91-1,1.63-1.25l3.23-1.08c.54-.19,1.25-.37,1.45-1a3.16,3.16,0,0,0,2.48,3.49c2,.32,3.19-1.34,3.48-3.15.17-1.09.27-2.17.44-3.28.1-.61.28-1.25.37-1.86,0-.21,0-.36-.23-.39s-.28.27-.3.44c-.21,1.34-.56,1.18-1.78,1l-7.82-1.24Zm7.75,2.78c1.34.21,1.52.28,1.29,1.73a2.53,2.53,0,0,1-3.15,2.32,2.36,2.36,0,0,1-1.81-1.19,3.68,3.68,0,0,1-.25-2.49c.05-.33,0-1,.5-.92l3.42.54Z" transform="translate(-21.01 -184.28)"/><path class="cls-1" d="M225.14,327l8.88-.91a2.13,2.13,0,0,1,.81,0c.33.1.05.89,0,1s-.08.38.15.45.28-.12.33-.28c.18-.57.27-1.15.44-1.71s.47-1.27.67-1.94c.05-.17.1-.39-.1-.46s-.37.23-.43.42c-.26.85-.9.9-1.65,1l-10.71,1.08c-.13,0-.56,0-.62.17s.33.38.43.45l8.11,6.63a3.81,3.81,0,0,1,1,1.08,1.21,1.21,0,0,1,0,.83c-.05.17-.1.46.12.52a.24.24,0,0,0,.32-.18c.16-.52.24-1.06.4-1.58s.4-1.05.56-1.57c.06-.19.07-.42-.15-.49s-.42.58-.47.75c-.1.33-.33.75-.76.62a3.62,3.62,0,0,1-.87-.55L225.14,327Z" transform="translate(-21.01 -184.28)"/><path class="cls-1" d="M229.79,341.36c.33,0,.56.12.72-.21l1-2c.09-.19.33-.46.05-.6s-.4.11-.48.28c-.46.94-.6,1-1.45.46l-7.44-4.3c-.83-.47-1.25-.74-.78-1.71.08-.16.2-.46,0-.56s-.27,0-.35.18c-.25.5-.43,1.06-.69,1.58s-.58,1-.83,1.53c-.08.16-.19.38,0,.48s.4-.25.49-.43c.6-1.23,1.48-.78,2.51-.2l6.92,4-.06.12-10.49-.87c-.14,0-.37-.07-.46.1s.09.3.19.41l7.16,8.27-.06.12-7.88-3.84c-.31-.15-1-.43-1.07-.85a1.63,1.63,0,0,1,.15-.94c.09-.17.3-.52,0-.65s-.3.09-.37.23c-.33.68-.6,1.41-.94,2.1s-.61,1.08-.88,1.64c-.07.14-.14.34,0,.43s.4-.25.49-.43a.91.91,0,0,1,.56-.57c.35-.09,1,.27,1.31.4l7.18,3.5c.31.15,1,.41,1.17.74s-.12.61-.23.83-.17.43.07.55.34-.22.44-.41l.94-1.93c.09-.19.18-.37,0-.58l-6.46-7.59,9.48.7Z" transform="translate(-21.01 -184.28)"/><polygon class="cls-1" points="193.4 173.48 192.59 172.82 190.22 175.75 187.28 173.38 186.63 174.19 189.56 176.57 187.2 179.49 188.01 180.14 190.37 177.22 193.29 179.59 193.95 178.78 191.03 176.41 193.4 173.48 193.4 173.48"/><path class="cls-1" d="M74.57,369.26c.09-.32.23-.53-.06-.75l-1.79-1.35c-.17-.13-.39-.41-.58-.17s0,.41.18.53c.83.63.83.77.17,1.51l-5.64,6.49c-.62.72-1,1.09-1.83.44-.14-.11-.41-.29-.55-.1s0,.27.11.37c.45.34,1,.63,1.42,1s.88.76,1.34,1.11c.14.1.34.26.48.07s-.17-.45-.33-.56c-1.1-.83-.49-1.6.28-2.5l5.25-6,.11.08-2.86,10.13c-.05.13-.14.35,0,.47s.31,0,.44-.1l9.49-5.45.11.08-5.28,7c-.21.28-.61.87-1,.89a1.62,1.62,0,0,1-.89-.33c-.15-.12-.46-.39-.63-.16s0,.31.15.41c.6.46,1.27.86,1.89,1.32s.94.81,1.44,1.18c.12.09.31.21.43,0s-.17-.45-.33-.56a.91.91,0,0,1-.45-.66c0-.36.46-1,.64-1.21L81.08,376c.21-.28.6-.93,1-1s.57.24.77.39.39.25.56,0-.15-.38-.32-.51l-1.72-1.29c-.17-.13-.32-.24-.57-.11l-8.68,4.9,2.5-9.17Z" transform="translate(-21.01 -184.28)"/><path class="cls-2" d="M84.88,383c-1.54,3.17.17,7.1,3.31,8.63,3.31,1.61,7.18.64,8.82-2.72s0-7-3.3-8.61c-3.13-1.53-7.28-.47-8.83,2.69Zm10.54,5.14a6,6,0,0,1-2.79,3A4.81,4.81,0,0,1,85.83,388a6.18,6.18,0,0,1,.61-4.2,6.26,6.26,0,0,1,2.83-3,4.81,4.81,0,0,1,4.24,0A4.73,4.73,0,0,1,96,384a6,6,0,0,1-.61,4.16Z" transform="translate(-21.01 -184.28)"/><path class="cls-1" d="M114.61,389.65c.11-.63.39-1-.18-1.41a9,9,0,0,0-2.87-1.33c-3.59-1-7.8.68-8.8,4.42a5.71,5.71,0,0,0,1,5,7.23,7.23,0,0,0,4.17,2.68,7.68,7.68,0,0,0,4.26,0c.5-.17.47-.4.6-.88l.58-2.15c.08-.28.18-.83.48-1a1.07,1.07,0,0,1,.62,0l.37.06c.17,0,.36.08.42-.15s-.11-.27-.26-.31c-.65-.17-1.31-.27-1.95-.44s-1.33-.43-2-.62c-.17,0-.43-.11-.5.13s.2.29.39.34c1.08.29,1.23.51.95,1.56l-.42,1.55c-.12.45-.3,1.26-.78,1.47a3.84,3.84,0,0,1-2.27,0,5.15,5.15,0,0,1-3.59-2.75,5.78,5.78,0,0,1-.32-4.17,6.85,6.85,0,0,1,2.42-3.64,4.76,4.76,0,0,1,4.2-.64c3.31.89,2.31,3.2,2.94,3.37.21.05.33-.11.38-.3l.17-.79Z" transform="translate(-21.01 -184.28)"/><path class="cls-1" d="M126.78,399.69,124,391.2a2.15,2.15,0,0,1-.18-.79c0-.35.86-.24,1-.24s.39,0,.41-.24-.17-.25-.35-.26c-.6-.05-1.18,0-1.76-.08s-1.34-.19-2-.26c-.17,0-.41,0-.43.2s.3.32.5.33c.89.08,1.07.7,1.29,1.41l3.28,10.25c0,.12.11.55.3.57s.31-.4.36-.51l4.8-9.31a3.82,3.82,0,0,1,.84-1.21,1.22,1.22,0,0,1,.81-.18c.17,0,.47,0,.49-.23a.24.24,0,0,0-.25-.27c-.54,0-1.09,0-1.63-.06s-1.11-.18-1.65-.22c-.19,0-.43,0-.45.25s.65.29.83.31c.35,0,.8.17.76.61a3.55,3.55,0,0,1-.36,1l-3.84,7.47Z" transform="translate(-21.01 -184.28)"/><path class="cls-1" d="M148.32,399l-7.6-8.25c-.26-.29-.44-.54-.85-.61l-2.39.21c-.21,0-.46.06-.43.35s.33.19.5.17c1.35-.12,1.29.28,1.39,1.49l.69,7.89c.1,1.2.24,1.59-1.11,1.71-.17,0-.51,0-.48.24s.18.28.37.26c.56,0,1.13-.18,1.67-.22s1.12,0,1.7-.07c.19,0,.32-.11.3-.32s-.33-.16-.5-.15c-1.35.12-1.29-.29-1.39-1.49l-.76-8.71,9,9.82c.11.15.31.44.52.42s.11-.28.1-.38l-.86-9.79c-.1-1.2-.22-1.59,1.11-1.71.19,0,.5,0,.48-.26a.3.3,0,0,0-.35-.28c-.56,0-1.09.17-1.67.22s-1.12,0-1.7.07c-.19,0-.34.13-.32.34s.33.19.5.17c1.35-.12,1.31.27,1.41,1.49l.65,7.4Z" transform="translate(-21.01 -184.28)"/><path class="cls-1" d="M159.82,388.55c-.24-1-.23-.92.62-1.13l1.09-.27a1.8,1.8,0,0,1,1.64.11,4.35,4.35,0,0,1,.86,1.14c.06.1.14.24.27.21s.18-.23.15-.37l-.46-2.32c0-.13-.08-.7-.34-.63s-.18.22-.2.39c-.06.57-.55.6-1,.72l-6.82,1.7c-.3.07-.68.23-1,.08s-.19-.19-.25-.36-.11-.19-.22-.16-.17.18-.18.32l-.12,2.62a1.6,1.6,0,0,0,0,.48c0,.13.11.21.24.18s.26-.4.3-.55c.53-1.73,1.18-2.07,2.89-2.5.58-.15.79-.34,1,.34l2.17,8.7c.29,1.18.48,1.54-.83,1.86-.17,0-.47.1-.41.34s.21.21.38.16c.71-.18,1.41-.43,2.12-.61s1.41-.27,2.12-.45c.17,0,.31-.12.26-.32s-.38-.15-.55-.1c-1.3.32-1.31-.05-1.61-1.25l-2.08-8.32Z" transform="translate(-21.01 -184.28)"/><path class="cls-1" d="M172.8,393.43c.44,1.14.66,1.46-.6,2-.16.06-.46.15-.37.39s.24.18.4.12c.69-.26,1.35-.6,2-.86s1.37-.44,2.05-.7c.16-.06.29-.15.22-.35s-.39-.1-.55,0c-1.25.46-1.31.11-1.75-1l-2.84-7.41c-.44-1.14-.66-1.45.61-1.93.16-.06.47-.18.38-.42s-.24-.2-.4-.14c-.69.26-1.35.6-2,.86s-1.36.44-2.05.71c-.18.07-.29.17-.21.37s.38.12.54.06c1.26-.49,1.31-.11,1.74,1l2.84,7.41Z" transform="translate(-21.01 -184.28)"/><path class="cls-1" d="M190.18,384.54l-10.3-4.45a1.37,1.37,0,0,0-1-.21l-2.1,1.16c-.19.1-.4.24-.25.5s.37,0,.53,0c1.18-.66,1.29-.27,1.88.79l3.84,6.92c.58,1,.86,1.36-.32,2-.15.08-.47.19-.35.41s.28.18.45.09c.49-.27,1-.62,1.43-.88s1-.48,1.53-.76c.17-.09.25-.23.15-.41s-.37,0-.52.07c-1.19.66-1.3.25-1.88-.8L179,381.29l12.23,5.3c.16.09.46.27.65.17s0-.3-.06-.39l-4.77-8.6c-.58-1-.85-1.37.32-2,.17-.09.44-.24.34-.43a.3.3,0,0,0-.44-.11c-.49.27-.93.6-1.43.88s-1,.48-1.53.76a.3.3,0,0,0-.15.44c.1.19.37,0,.53,0,1.19-.66,1.3-.28,1.9.79l3.6,6.5Z" transform="translate(-21.01 -184.28)"/><path class="cls-2" d="M198.38,377.51c-.21-.72-.35-.71.25-1.2l2-1.66c.72-.58.62-.5,1.55,0l1.41.75a3.3,3.3,0,0,1,.81.57c.36.45-.21.91-.6,1.23-.15.12-.44.35-.25.58s.27,0,.36,0c.56-.45,1.08-1,1.62-1.41s1.37-1,2-1.55c.08-.06.21-.2.1-.33s-.47,0-.62.13c-.74.6-1.7-.07-2.41-.46L195.52,369c-.1-.07-.32-.21-.44-.12s0,.38,0,.54l3.2,9.89a6.65,6.65,0,0,1,.39,1.65,1.26,1.26,0,0,1-.56.85c-.14.11-.42.34-.25.55s.52-.15.67-.27c.42-.34.79-.74,1.21-1.08s.89-.62,1.31-1c.15-.12.36-.29.22-.47s-.41,0-.55.12c-.35.28-1,.77-1.45.28a3.33,3.33,0,0,1-.46-1l-.46-1.49Zm-1.75-5.3c0-.1-.23-.56-.11-.66s.53.22.61.26l3.09,1.73s.33.18.37.24-.25.4-.34.47l-1.73,1.4c-.06,0-.49.5-.61.35a1,1,0,0,1-.1-.22l-1.18-3.58Z" transform="translate(-21.01 -184.28)"/><path class="cls-1" d="M83.21,309.41l.11,26.47c1.92.49,4.28.22,6.2.27l.93-.77-.11-26h1.37l0,28.23L93.75,340l3.29.11c.88-.66.38-1.92,1.59-2.47l.05-28.23h1.16l0,26.36c2,.49,4.33.16,6.47.27l.55-.55V309.41h1.33v28.23c1.48,4.11,6.35,1.54,9.48,2.25.33-.93.52-2,1.73-2.24,0-3.81,0-15.62-.1-28.24h1.11l.11,26.36a14.79,14.79,0,0,0,6.58-.11V309.41h1.37v11.7c.76.3,2.15-.09,3.14-.2a65.88,65.88,0,0,0-1.7-6.47c1-.88,2-2.36,3.29-2.91a2.46,2.46,0,0,1-.8-2.12H134s0,.09,0,.13c.38.6.71,1.42,1.48,1.59.55-.33.77-1.09,1-1.7v0h2c-.35.75-.32,1.64-1,2.28,5.54,1.76,0,6,.66,9.05,1.1.38,2.38-.2,3.37.57.05.88.33,3-.71,3.33l.16,10.69.58.43c.33-.05.77.16.93-.27V309.41h1.14v19.78c.16,2.19-.44,4.72.55,6.58,2-.11,4.33.33,6.2-.38v-26h1.43v28.06l2.25,2.36h6.2c.6-.16.71-.82.66-1.43.16-1.15,1.43-.27,2-.93V309.41h1.06l.26,25.71.28.78h5.76l.38-.78-.09-25.71h1.57l.11,24,.16,3.79,2.08,2.41,3,.11c.38-.27.88-.44.66-1-.17-.88.82-1,1.32-1.32l-.21-28h1.1l.21,25.71.38.38c2.14-.11,4.55.33,6.47-.38l-.09-25.71h1.32l.11,23.79c.14,2.05-.44,4.74,1.15,5.73.77,1,2.18.27,3.17.66,1.29,3.14,3.9.89,5,3.55,2.29,0,1.68,2.39,4.6,2.53a3.3,3.3,0,0,1,.21,3.31l-135,.44a3.81,3.81,0,0,1,.11-3.28,3.09,3.09,0,0,0,2.35-.49c.16-.44-.33-1.25.44-1.31,1,0,2.24.11,2.73-.93,0-.6.16-1.26.93-1.2s1.64.27,2.07-.49c.33-.54-.16-1.42.65-1.69,1.31-.33,3.66.76,3.93-.93-.38-1.2,1.15-.87,1.31-1.86,0,0,0-13.19-.12-27.82Zm99.67,29a27.43,27.43,0,0,0-3.87-.24,1.8,1.8,0,0,0,.28,1.39l9.55-.17c.22-.06-.33-1.11-.39-1.11a48.56,48.56,0,0,0-5.57.13Zm3.87-2.1H181l-.5.77c1.94.72,4.48.39,6.64.28.33-.39,0-.89-.39-1.05Zm-16,.67c-1.66-1.38-4.15-.11-6.25-.28a.65.65,0,0,0,.28.94l5.86-.28.11-.39Zm1.84,2.11-.45-.77-9.91.19a.88.88,0,0,0,.17,1.27l10.06-.05.13-.64Zm-20.92.5-.32-1.06h-8.25c-.28.11-.76.82-.49,1.1a62,62,0,0,0,9.06,0Zm-1.87-3H144.4l-.55.77a21.51,21.51,0,0,0,6.25.17c.44-.33.17-.83-.28-.94Zm-22.28.31c-2-.5-4.53-.1-6.65-.21-.45.28-.45.67-.11.95H127a.68.68,0,0,0,.49-.74Zm.66,1.74h-8.82c-.28.28-.39.9.06,1.12h8.64l.39-.22c.34-.22-.22-.67-.27-.9Zm-20.59.45c-2.57-.45-5.67-.17-8.35-.22l-.56.39c-.11.39.17.56.39.78h7.57c.75-.08,1.17-.17.95-.95Zm-.87-1.84c-1.84-1-4.36-.39-6.53-.56l-.56.39c-.11.39.17.56.28.84h6.14l.67-.67Zm-16.59-.38H83.79l-.39.66c1.82,1,4.53.28,6.75.39l.39-.28c.06-.33-.06-.72-.39-.77Zm1.6,2.38c-2.93-.5-6.19-.17-9.29-.28-.55.28-.22,1,.28,1h8.63c.17-.22.5-.39.39-.77Zm100.45.93c-16-.12-29.44.51-45.45.34l-3.86.18-65.13.16a.58.58,0,0,0-.44.69c.33.17.55.4.94.29l60.63-.29a45.67,45.67,0,0,1,6.88,0l43-.23c1.1-.63,2.7,0,3.8-.58.16-.34-.22-.4-.39-.57Zm3.58,2.43c-2.37-.8-5.28-.29-7.92-.46l-68.28.46c-14.85-.06-30,.13-45.21.08-.17.23-.35,1-.07,1.13l113.17-.4c2.36-.52,5.12-.17,7.65-.29l.66-.52Zm-5.58,1.53c-1.21.17-118.81.75-118.81.75l-.39.29c.06.29-.11.75.17,1l104.42-.46c7.59-.34,16.52.44,23.83-.36-.05-.29-.07-.76-.34-1a32.88,32.88,0,0,0-8.88-.2Zm.69,2-3.29.29a12.07,12.07,0,0,0-5.37,0l-95,.57L86,347.2c-1.37.23-2.68-.4-3.83,0H69l-.38.29c-.49.23-.05.57,0,.8,5.64.92,11.39-.52,17,.17l116-.29.4-.57c.55-.4.11-1.21-.38-1.38ZM135.77,318.6c0-.84-1-.72-1.86-.74l.11.38c.49-.05,1.31,1,1.75.35Zm-1.31,1.73a2.91,2.91,0,0,0-2-1.59c-.49.77.27,1.31.66,1.86s1,.22,1.31-.27Zm1.42-6.41c-1-.27-.17-1.48-.77-2-1.37.06-.11,1.64-1.09,2.08-.38.11-1.2.44-1.42-.27.06-.33.66-.6.66-.93a6.4,6.4,0,0,0-2.24,1.75l.93,2c1.7.71,3.34-.27,5-.44.49-.38,1.37-1.26,1-2.08l-2.08-.11Zm4.65,8H129.42l-.28.39a1.31,1.31,0,0,0,.92,1.15l10.13-.11.45-.48c-.06-.34.11-.73-.11-1Zm-11.08,2.82-.95-.22s-.35,7.89.21,11c0-.5.73.31.76-.21.18-2.84-.06-7.73,0-10.6Zm12.44,12.42-.38-.38c-4.05-.16-8.32-.16-12.32,0-1,1,.6,2,1,2.9a90.49,90.49,0,0,0,10.89,0l.77-2.52Zm-2.14-12-.44-.39h-8.62l-.39.39.17,10.51c1,.5,1.82.28,3,.39,1.82-.5,4-.17,6-.28l.28-.39V325.14Z" transform="translate(-21.01 -184.28)"/><path class="cls-1" d="M82.24,309.41c-.08-16.56-.18-35-.27-38.16a4,4,0,0,1-2.24-2.35c1.25-1.75-2.24-2.29-.66-3.82.16-1-2.07-2.24-.11-2.73l.11-6.82c-.87-1.2-3.06-2.29-2.73-4.2.6-1.47,2.24-.44,3.27-.93,1.86-2.73,4.8-3.6,7.59-4.42a14.29,14.29,0,0,1,5.35-4.86A10.28,10.28,0,0,1,98.07,237c4.8-6.44,11.73-11.73,19.38-13.21l6.17-1.2c.55-.66.05-1.75.38-2.46,3.06-4.91,8.9-7,14.85-5.78,3,.76,5.57,2.89,7.7,5.51,0,.93-.11,2,.93,2.35a32.23,32.23,0,0,1,24.07,12.33c.6.27,1,1,1.75.93,3.39,1.31,4.75,5.07,8.24,6.11,2.07,1.36,3.33,4,5.89,4.2,2.89.38,3.11,5,6.39,4.2a2,2,0,0,1,.16,1.86c-.6,1-2,1-2.51,2.18v7.64c1.75,1.15-1.25,2.35.16,3.93-.6,1-1.31,1.86-1.2,3.11l-2,2.51.17,38.16H187.3l-.07-20.1c.39-.71-.33-12.89-.27-18.7a8.19,8.19,0,0,1-1.81-2.47h-2.36c-.6,1.37-2.58,1.37-2.8,3l.16,9.05a22,22,0,0,0,.11,4.22,10.91,10.91,0,0,0-.11,4.22l.17,20.76h-1.1l-.29-38.8a3.21,3.21,0,0,1-1.87-3.29c-1-.55-1.7-.11-2.74,0,0,1.76-1.48,2.41-2.41,3.56l.17,38.53h-1.57l-.13-38.8-1.59-2.36h-3.18a9.62,9.62,0,0,0-2.08,1.86l.4,39.3h-1.06v-1.83l-.27-36.81-.27-.44c-1.15.38-1.92-.49-2.47-1.32-.27-.49.05-1.21-.55-1.54h-4.72c-.22,1.54-1.48,2.41-2.8,3.13v38.8h-1.43v-38.8l-.93-.93c-.05-1.65-1.75-1.43-3-1.43-1.59-.22-1.59,1.59-2.8,2.25v38.91h-1.14V271.65a.8.8,0,0,0-.93-.88,3,3,0,0,1-2-3.07c-1.59-.5-3.51-.17-5.27-.22-.93.33-2.25-.27-3,.49-.06,1.48-1.76,2.41-2.74,3.29v38.14h-1.37V270.77l-.93-1.32c.17-2-2.19-.71-3.29-1.1-1.32.71-1.21,2.47-2.63,3.07l.16,38h-1.11c-.12-18.22-.3-38.14-.3-38.14l-1.59-.93a2.59,2.59,0,0,1-.66-2.63c-1.92,0-3.95-.55-5.81,0a5.9,5.9,0,0,1-2.74,3.45v38.25h-1.33V271.54c-.22-.93-1.81-1.32-1.48-2.52-2.25-2-4.06.82-5.65,2.25l.06,38.14H98.68l.06-32.06L98.47,271a3.39,3.39,0,0,1-2-3.4c-.82.11-1.81-.22-2.47.27.17,1.43-1.26,2.41-2.25,3.13l-.06,38.42H90.34l-.16-38.25-.93-.82c.38-2.41-2.36-1.26-3.67-1.54L83,271.16l.16,38.25Zm50.21,0a4.83,4.83,0,0,1,.14-1c.71-1.15,1.86-2.36,3.29-2.25a6.79,6.79,0,0,1,2.63,3.18l0,.07h-2c-.37-.88-.22-2.39-1.58-2.33-1.2.16-.86,1.46-.92,2.34Zm56.19-43.47-8.15-.12a3,3,0,0,0-2.29,1.53c-.17.53-.34,1.47.28,1.82s1.4.88,1.84,0c.45-1.41-.84-.41-1.34-1.11-.39-.35.28-.53.45-.82,2.74-.35,5.86.12,8.54-.41l.56.53a.78.78,0,0,1-.28,1.11c-.5.12-.84-1.11-1.34-.23-.33.23.11.53.11.82a1.52,1.52,0,0,0,2.29-.29c.84-.88.28-2.17-.67-2.82Zm-15.57,2c-.95-3.46-5.08-1.64-7.54-2.11-1.73.47-4.36-.65-5.08,1.82a1.77,1.77,0,0,0,.78,1.82,1.3,1.3,0,0,0,1.62-.29c.45-1.47-1.12-.53-1.45-1.23a1.27,1.27,0,0,1,1.17-.88c2.9.76,5.75-.18,8.6-.24l.95.82c0,1.88-1.4-.23-1.9.82.06.82.89.76,1.34,1.17,1,0,1.17-1,1.51-1.7Zm-43.76-1.3c-3.35-1.06-6.81-.41-10.22,0a2.8,2.8,0,0,0-1.17,2.41c.22,1,1.23,1.29,2.12,1.29a1.65,1.65,0,0,0,.56-1c-.11-.88-1.12-.06-1.34-.7-.45-.29.11-.53.22-.7,2.79-.82,6.37-.18,9.16-.59l.5.59c.06,2.29-1.34-.94-1.84.82-.17.41.17.59.39.88a1.55,1.55,0,0,0,2-.29c-.11-1.06.89-2-.39-2.7Zm23.78,1.12a3.85,3.85,0,0,0-2.12-1.82c-3.3.41-7.32-1.06-9.83,1.29-.28.76-1.12,1.7,0,2.41.61.23,1.45.7,2,.12.17-.41.34-1.11-.11-1.41s-.67.53-1.06.59c-.22-.29-.56-.47-.39-.88a2.32,2.32,0,0,1,1.56-1c1.62.82,3.68.29,5.53.47,1.06-.18,2.57-1.53,3.46,0-.05,2.4-1.62-1.29-2.12.94a2.2,2.2,0,0,0,1.73,1.17c.95-.06,1-1.17,1.34-1.88Zm-44.14-.83c-2.74-1.29-6.31-.47-9.38-.7l-1.79,1.41a1.9,1.9,0,0,0,.56,2.11c.67.12,1.34.41,1.9-.29.22-1.64-1.12.06-1.51-1-.22-.47.33-.65.56-.94,2.74-.18,6,.35,8.71-.47.28.35,1.12.41.78,1.17-.5,1.23-1.17-.65-1.84,0-.17.47-.33,1.29.11,1.64.84.53,1.68-.23,2.12-.82.61-.65.11-1.53-.22-2.11Zm-16.19.82c-.28-.88-.89-1.06-1.56-1.53-3,.12-6-.23-8.71.29a2,2,0,0,0-1.79,2.11c.22.65.89,1.35,1.62,1.23.39-.06.78-.23.84-.7-.33-.59-.84,0-1.23,0-.11-.23-.56-.35-.39-.7a2.34,2.34,0,0,1,1.34-1.12c2.63.12,5.7.47,8.15-.29.45.23,1.17.64,1.06,1.29-.45.82-1-.41-1.73,0a1.09,1.09,0,0,0-.39,1c.34.65,1.12.7,1.73.82,1.06-.24,1.17-1.41,1.06-2.41Zm97-4.69H166.86l-86.17.38-.55.55c.11.44-.16,1,.44,1.31l95.47-.16,2.13-.22a28,28,0,0,0,8,0c1.31-.6,4.05.77,4.22-1.2a1.11,1.11,0,0,0-.66-.66Zm3.12-12.1h-29l-86.06.38-.38.27c-.11.33.63,1,.9,1.1l113.81-.33s1.11-.23,1.11-.75c0-.3-.25-.51-.36-.67Zm-25.07-13.9a7.9,7.9,0,0,1-2.24.11l-65.42.27c-2.3.44-4.71,1.15-6,3.29l.27.27,82-.16.77-.22c-1.7-3.5-5.8-3.34-9.31-3.56Zm15,7.88c-3-5-10-2.52-15.27-3.17L93.45,242c-1.37.33-4.71,2.74-4.11,3.39l92.63-.22.82-.27Zm-2.41,1.31-2.74-.27c-.55.77-1-.44-1.59.11L92,246.53c-4.05-.17-7.88.33-10.62,3.39l.27.38,95-.27c4.22-.55,8.92.05,13.14-.49-2-3-5.91-4.11-9.36-3.29Zm9.63,8.38-109.87.27c-1,.22.33.66,0,1.2-.27,2.08-.6,4.38.27,6.29l109.43-.27.55-.49c-.16-2.35.33-4.93-.38-7Zm-32-28.9c-3.34-.82-6.3-2.63-10.07-2.46-11.17.11-23.21-1.15-33.23,2.08-5.47,2-11.11,5.42-14.34,10.79h62.24l7.5-.27v-.38a37.9,37.9,0,0,0-12.1-9.74ZM145,220.63l-19.55.05c-.27.16-.65,1.06-.1,1.28h19.81l.24-.39c.11-.38-.28-.72-.39-.94Zm-.54-1c-1.26-2.63-4.11-3.5-6.46-4.6a12.22,12.22,0,0,0-12.21,4.16v.55l18.67-.11Z" transform="translate(-21.01 -184.28)"/><path class="cls-3" d="M22.13,298.26A112.87,112.87,0,1,1,135,411.13,112.87,112.87,0,0,1,22.13,298.26Z" transform="translate(-21.01 -184.28)"/><path class="cls-4" d="M26.1,298.26A108.9,108.9,0,1,1,135,407.16,108.9,108.9,0,0,1,26.1,298.26Z" transform="translate(-21.01 -184.28)"/></g><text class="cls-5" transform="translate(252.11 43.47)">Akademie<tspan x="0" y="57.6">der</tspan><tspan class="cls-6" x="66.47" y="57.6"> </tspan><tspan x="73.8" y="57.6">Wissenschaften</tspan><tspan x="0" y="115.2">und der Literatur</tspan><tspan x="0" y="172.8">Mainz</tspan></text></svg>